<mxfile host="app.diagrams.net" modified="2022-03-09T03:25:04.766Z" agent="5.0 (Windows NT 10.0; Win64; x64) AppleWebKit/537.36 (KHTML, like Gecko) Chrome/99.0.4844.51 Safari/537.36" etag="XWvWt1V88OA-HMbz2Ac8" version="17.0.0" type="github">
  <diagram name="Page-1" id="edf60f1a-56cd-e834-aa8a-f176f3a09ee4">
    <mxGraphModel dx="809" dy="1639" grid="1" gridSize="10" guides="1" tooltips="1" connect="1" arrows="1" fold="1" page="1" pageScale="1" pageWidth="1100" pageHeight="850" background="none" math="0" shadow="0">
      <root>
        <mxCell id="0" />
        <mxCell id="1" parent="0" />
        <mxCell id="60e70716793133e9-31" style="edgeStyle=orthogonalEdgeStyle;rounded=0;html=1;labelBackgroundColor=none;startSize=5;endArrow=classicThin;endFill=1;endSize=5;jettySize=auto;orthogonalLoop=1;strokeWidth=1;fontFamily=Verdana;fontSize=8" parent="1" source="60e70716793133e9-2" edge="1">
          <mxGeometry relative="1" as="geometry">
            <mxPoint x="570" y="-100" as="targetPoint" />
            <Array as="points">
              <mxPoint x="570" y="-110" />
            </Array>
          </mxGeometry>
        </mxCell>
        <mxCell id="60e70716793133e9-2" value="Start ( yes/no)" style="shape=trapezoid;whiteSpace=wrap;html=1;rounded=0;shadow=1;labelBackgroundColor=none;strokeWidth=1;fontFamily=Verdana;fontSize=8;align=center;flipV=1;" parent="1" vertex="1">
          <mxGeometry x="510" y="-220" width="120" height="60" as="geometry" />
        </mxCell>
        <mxCell id="3-9XB3UlxTxE3NfFyeRO-5" style="edgeStyle=orthogonalEdgeStyle;rounded=0;orthogonalLoop=1;jettySize=auto;html=1;exitX=0.5;exitY=1;exitDx=0;exitDy=0;" edge="1" parent="1" source="3-9XB3UlxTxE3NfFyeRO-2" target="3-9XB3UlxTxE3NfFyeRO-6">
          <mxGeometry relative="1" as="geometry">
            <mxPoint x="570" y="40" as="targetPoint" />
          </mxGeometry>
        </mxCell>
        <mxCell id="3-9XB3UlxTxE3NfFyeRO-2" value="Intro text, first path" style="rounded=0;whiteSpace=wrap;html=1;shadow=1;" vertex="1" parent="1">
          <mxGeometry x="510" y="-100" width="120" height="60" as="geometry" />
        </mxCell>
        <mxCell id="3-9XB3UlxTxE3NfFyeRO-3" value="" style="endArrow=classic;html=1;rounded=0;entryX=0.5;entryY=0;entryDx=0;entryDy=0;" edge="1" parent="1" target="3-9XB3UlxTxE3NfFyeRO-7">
          <mxGeometry width="50" height="50" relative="1" as="geometry">
            <mxPoint x="540" y="-40" as="sourcePoint" />
            <mxPoint x="470" y="40" as="targetPoint" />
          </mxGeometry>
        </mxCell>
        <mxCell id="3-9XB3UlxTxE3NfFyeRO-4" value="" style="endArrow=classic;html=1;rounded=0;entryX=0.5;entryY=0;entryDx=0;entryDy=0;" edge="1" parent="1" target="3-9XB3UlxTxE3NfFyeRO-8">
          <mxGeometry width="50" height="50" relative="1" as="geometry">
            <mxPoint x="610" y="-40" as="sourcePoint" />
            <mxPoint x="670" y="40" as="targetPoint" />
          </mxGeometry>
        </mxCell>
        <mxCell id="3-9XB3UlxTxE3NfFyeRO-6" value="path 2" style="rounded=1;whiteSpace=wrap;html=1;shadow=1;" vertex="1" parent="1">
          <mxGeometry x="510" y="35" width="120" height="60" as="geometry" />
        </mxCell>
        <mxCell id="3-9XB3UlxTxE3NfFyeRO-7" value="path 1" style="rounded=1;whiteSpace=wrap;html=1;shadow=1;" vertex="1" parent="1">
          <mxGeometry x="370" y="35" width="120" height="65" as="geometry" />
        </mxCell>
        <mxCell id="3-9XB3UlxTxE3NfFyeRO-8" value="path 3" style="rounded=1;whiteSpace=wrap;html=1;shadow=1;" vertex="1" parent="1">
          <mxGeometry x="650" y="35" width="120" height="60" as="geometry" />
        </mxCell>
        <mxCell id="3-9XB3UlxTxE3NfFyeRO-13" value="" style="endArrow=classic;html=1;rounded=0;exitX=1;exitY=0;exitDx=0;exitDy=0;" edge="1" parent="1" source="3-9XB3UlxTxE3NfFyeRO-16">
          <mxGeometry width="50" height="50" relative="1" as="geometry">
            <mxPoint x="240" y="238.35" as="sourcePoint" />
            <mxPoint x="387" y="250" as="targetPoint" />
            <Array as="points">
              <mxPoint x="410" y="100" />
            </Array>
          </mxGeometry>
        </mxCell>
        <mxCell id="3-9XB3UlxTxE3NfFyeRO-14" value="" style="ellipse;whiteSpace=wrap;html=1;aspect=fixed;shadow=1;" vertex="1" parent="1">
          <mxGeometry x="320" y="220" width="80" height="80" as="geometry" />
        </mxCell>
        <mxCell id="3-9XB3UlxTxE3NfFyeRO-16" value="" style="ellipse;whiteSpace=wrap;html=1;aspect=fixed;shadow=1;" vertex="1" parent="1">
          <mxGeometry x="230" y="220" width="80" height="80" as="geometry" />
        </mxCell>
        <mxCell id="3-9XB3UlxTxE3NfFyeRO-15" value="" style="ellipse;whiteSpace=wrap;html=1;aspect=fixed;shadow=1;" vertex="1" parent="1">
          <mxGeometry x="150" y="220" width="80" height="80" as="geometry" />
        </mxCell>
        <mxCell id="3-9XB3UlxTxE3NfFyeRO-17" value="" style="endArrow=none;html=1;rounded=0;exitX=0.25;exitY=1;exitDx=0;exitDy=0;" edge="1" parent="1" source="3-9XB3UlxTxE3NfFyeRO-7" target="3-9XB3UlxTxE3NfFyeRO-15">
          <mxGeometry width="50" height="50" relative="1" as="geometry">
            <mxPoint x="410" y="110" as="sourcePoint" />
            <mxPoint x="165.41314824195092" y="233.85811392714254" as="targetPoint" />
          </mxGeometry>
        </mxCell>
        <mxCell id="3-9XB3UlxTxE3NfFyeRO-18" value="" style="ellipse;whiteSpace=wrap;html=1;aspect=fixed;shadow=1;" vertex="1" parent="1">
          <mxGeometry x="440" y="220" width="80" height="80" as="geometry" />
        </mxCell>
        <mxCell id="3-9XB3UlxTxE3NfFyeRO-19" value="" style="ellipse;whiteSpace=wrap;html=1;aspect=fixed;shadow=1;" vertex="1" parent="1">
          <mxGeometry x="600" y="220" width="80" height="80" as="geometry" />
        </mxCell>
        <mxCell id="3-9XB3UlxTxE3NfFyeRO-20" value="" style="ellipse;whiteSpace=wrap;html=1;aspect=fixed;shadow=1;" vertex="1" parent="1">
          <mxGeometry x="520" y="220" width="80" height="80" as="geometry" />
        </mxCell>
        <mxCell id="3-9XB3UlxTxE3NfFyeRO-21" value="" style="endArrow=classic;html=1;rounded=0;exitX=0.5;exitY=1;exitDx=0;exitDy=0;" edge="1" parent="1" source="3-9XB3UlxTxE3NfFyeRO-6">
          <mxGeometry width="50" height="50" relative="1" as="geometry">
            <mxPoint x="460" y="270" as="sourcePoint" />
            <mxPoint x="500" y="230" as="targetPoint" />
          </mxGeometry>
        </mxCell>
        <mxCell id="3-9XB3UlxTxE3NfFyeRO-22" value="" style="endArrow=classic;html=1;rounded=0;exitX=0.5;exitY=1;exitDx=0;exitDy=0;" edge="1" parent="1" source="3-9XB3UlxTxE3NfFyeRO-6" target="3-9XB3UlxTxE3NfFyeRO-20">
          <mxGeometry width="50" height="50" relative="1" as="geometry">
            <mxPoint x="460" y="270" as="sourcePoint" />
            <mxPoint x="510" y="220" as="targetPoint" />
          </mxGeometry>
        </mxCell>
        <mxCell id="3-9XB3UlxTxE3NfFyeRO-23" value="" style="endArrow=classic;html=1;rounded=0;entryX=0.5;entryY=0;entryDx=0;entryDy=0;exitX=0.5;exitY=1;exitDx=0;exitDy=0;" edge="1" parent="1" source="3-9XB3UlxTxE3NfFyeRO-6" target="3-9XB3UlxTxE3NfFyeRO-19">
          <mxGeometry width="50" height="50" relative="1" as="geometry">
            <mxPoint x="460" y="270" as="sourcePoint" />
            <mxPoint x="510" y="220" as="targetPoint" />
          </mxGeometry>
        </mxCell>
        <mxCell id="3-9XB3UlxTxE3NfFyeRO-24" value="" style="ellipse;whiteSpace=wrap;html=1;aspect=fixed;shadow=1;" vertex="1" parent="1">
          <mxGeometry x="910" y="220" width="80" height="80" as="geometry" />
        </mxCell>
        <mxCell id="3-9XB3UlxTxE3NfFyeRO-25" value="" style="ellipse;whiteSpace=wrap;html=1;aspect=fixed;shadow=1;" vertex="1" parent="1">
          <mxGeometry x="820" y="220" width="80" height="80" as="geometry" />
        </mxCell>
        <mxCell id="3-9XB3UlxTxE3NfFyeRO-26" value="" style="ellipse;whiteSpace=wrap;html=1;aspect=fixed;shadow=1;" vertex="1" parent="1">
          <mxGeometry x="740" y="220" width="80" height="80" as="geometry" />
        </mxCell>
        <mxCell id="3-9XB3UlxTxE3NfFyeRO-27" value="" style="endArrow=classic;html=1;rounded=0;entryX=0.5;entryY=0;entryDx=0;entryDy=0;exitX=0.5;exitY=1;exitDx=0;exitDy=0;" edge="1" parent="1" source="3-9XB3UlxTxE3NfFyeRO-8" target="3-9XB3UlxTxE3NfFyeRO-26">
          <mxGeometry width="50" height="50" relative="1" as="geometry">
            <mxPoint x="690" y="110" as="sourcePoint" />
            <mxPoint x="650" y="220" as="targetPoint" />
          </mxGeometry>
        </mxCell>
        <mxCell id="3-9XB3UlxTxE3NfFyeRO-28" value="" style="endArrow=classic;html=1;rounded=0;entryX=0.5;entryY=0;entryDx=0;entryDy=0;exitX=0.5;exitY=1;exitDx=0;exitDy=0;" edge="1" parent="1" source="3-9XB3UlxTxE3NfFyeRO-8" target="3-9XB3UlxTxE3NfFyeRO-25">
          <mxGeometry width="50" height="50" relative="1" as="geometry">
            <mxPoint x="600" y="270" as="sourcePoint" />
            <mxPoint x="650" y="220" as="targetPoint" />
          </mxGeometry>
        </mxCell>
        <mxCell id="3-9XB3UlxTxE3NfFyeRO-29" value="" style="endArrow=classic;html=1;rounded=0;entryX=0.5;entryY=0;entryDx=0;entryDy=0;exitX=0.5;exitY=1;exitDx=0;exitDy=0;" edge="1" parent="1" source="3-9XB3UlxTxE3NfFyeRO-8" target="3-9XB3UlxTxE3NfFyeRO-24">
          <mxGeometry width="50" height="50" relative="1" as="geometry">
            <mxPoint x="600" y="270" as="sourcePoint" />
            <mxPoint x="650" y="220" as="targetPoint" />
          </mxGeometry>
        </mxCell>
        <mxCell id="3-9XB3UlxTxE3NfFyeRO-32" value="" style="rounded=1;whiteSpace=wrap;html=1;shadow=1;" vertex="1" parent="1">
          <mxGeometry x="580" y="440" width="120" height="60" as="geometry" />
        </mxCell>
        <mxCell id="3-9XB3UlxTxE3NfFyeRO-33" value="" style="rounded=1;whiteSpace=wrap;html=1;shadow=1;" vertex="1" parent="1">
          <mxGeometry x="340" y="440" width="120" height="60" as="geometry" />
        </mxCell>
      </root>
    </mxGraphModel>
  </diagram>
</mxfile>
